<?xml version="1.0" standalone="no"?>
<!DOCTYPE svg PUBLIC "-//W3C//DTD SVG 1.1//EN" "http://www.w3.org/Graphics/SVG/1.1/DTD/svg11.dtd" >
<svg xmlns="http://www.w3.org/2000/svg">
<metadata>
Created by FontForge 20120731 at Tue Jul 12 15:00:52 2016
 By admin
</metadata>
<defs>
<font id="iconfont" horiz-adv-x="1024" >
  <font-face 
    font-family="iconfont"
    font-weight="500"
    font-stretch="normal"
    units-per-em="1024"
    panose-1="2 0 6 3 0 0 0 0 0 0"
    ascent="896"
    descent="-128"
    x-height="792"
    bbox="0 -212 1220 896"
    underline-thickness="50"
    underline-position="-100"
    unicode-range="U+0078-E62D"
  />
<missing-glyph horiz-adv-x="374" 
d="M34 0v682h272v-682h-272zM68 34h204v614h-204v-614z" />
    <glyph glyph-name=".notdef" horiz-adv-x="374" 
d="M34 0v682h272v-682h-272zM68 34h204v614h-204v-614z" />
    <glyph glyph-name=".null" horiz-adv-x="0" 
 />
    <glyph glyph-name="nonmarkingreturn" horiz-adv-x="341" 
 />
    <glyph glyph-name="x" unicode="x" horiz-adv-x="1001" 
d="M281 543q-27 -1 -53 -1h-83q-18 0 -36.5 -6t-32.5 -18.5t-23 -32t-9 -45.5v-76h912v41q0 16 -0.5 30t-0.5 18q0 13 -5 29t-17 29.5t-31.5 22.5t-49.5 9h-133v-97h-438v97zM955 310v-52q0 -23 0.5 -52t0.5 -58t-10.5 -47.5t-26 -30t-33 -16t-31.5 -4.5q-14 -1 -29.5 -0.5
t-29.5 0.5h-32l-45 128h-439l-44 -128h-29h-34q-20 0 -45 1q-25 0 -41 9.5t-25.5 23t-13.5 29.5t-4 30v167h911zM163 247q-12 0 -21 -8.5t-9 -21.5t9 -21.5t21 -8.5q13 0 22 8.5t9 21.5t-9 21.5t-22 8.5zM316 123q-8 -26 -14 -48q-5 -19 -10.5 -37t-7.5 -25t-3 -15t1 -14.5
t9.5 -10.5t21.5 -4h37h67h81h80h64h36q23 0 34 12t2 38q-5 13 -9.5 30.5t-9.5 34.5q-5 19 -11 39h-368zM336 498v228q0 11 2.5 23t10 21.5t20.5 15.5t34 6h188q31 0 51.5 -14.5t20.5 -52.5v-227h-327z" />
    <glyph glyph-name="uniE600" unicode="&#xe600;" 
d="M674 -50q-93 0 -185 52t-169 169q-77 118 -89 223q-6 52 -0.5 98.5t19.5 78.5t24.5 50t20.5 30q24 28 42 30q34 8 70 -31q16 -19 38 -54q2 -3 3 -5v-1q49 -78 23 -126l-1 -1q-5 -9 -17 -25q-12 -15 -17 -23.5t-10 -22t-4 -25.5q3 -38 43 -101q40 -59 74 -77
q11 -6 25.5 -7t24.5 1t28 6q20 5 30 6l1 1q53 4 103 -69q2 -2 2 -3q68 -97 42 -136q-9 -17 -44 -28q-34 -10 -77 -10zM354 194q72 -109 155 -156q87 -50 173 -47q29 0 50.5 6.5t28.5 11.5v1q5 8 -10 40q-11 22 -31 51q-1 1 -2 3q-37 53 -65 51q-9 -2 -26 -6q-22 -5 -35 -7
t-34 -0.5t-38 11.5q-41 22 -87 87q-1 1 -2 3q-2 2 -2 3q-44 71 -48 117q-2 20 4.5 40t13.5 30.5t21 29.5q11 14 15 21q14 27 -21 84l-1 2q-1 1 -3 5q-20 32 -34 47q-19 22 -30 19h-2q-8 -4 -22 -21t-26 -44q-36 -78 -25 -178q11 -94 83 -204v0z" />
    <glyph glyph-name="uniE601" unicode="&#xe601;" 
d="M512 -84q-12 13 -31 35.5t-69 86.5t-87.5 121t-69 124.5t-31.5 112.5q0 119 84.5 203.5t203.5 84.5t203.5 -84.5t84.5 -203.5q0 -45 -29.5 -110.5t-72 -128t-85 -118t-71.5 -89.5t-30 -34zM512 647q-104 0 -177.5 -75t-73.5 -180q0 -39 26 -97.5t63 -113.5t73.5 -104
t62.5 -79l26 -30q10 11 27 31t60.5 76.5t76.5 107t60 110.5t27 99q0 105 -73.5 180t-177.5 75zM512 300q-50 0 -85 35t-35 84.5t35 85t85 35.5t85 -35.5t35 -85t-35 -84.5t-85 -35zM512 506q-37 0 -62.5 -25.5t-25.5 -62.5t25.5 -63t62.5 -26t63 26t26 63t-26 62.5t-63 25.5
z" />
    <glyph glyph-name="uniE602" unicode="&#xe602;" 
d="M949 377l-440 411l-441 -410q-6 -6 -6.5 -15t5.5 -15.5t15 -6.5t15 6l412 383l411 -384q6 -6 14 -6q10 0 16 7q6 6 6 15t-7 15zM815 368q-9 0 -15.5 -6t-6.5 -15v-327h-170v227h-228v-227h-171v327q0 9 -6 15t-15 6t-15.5 -6t-6.5 -15v-370h257v228h142v-228h256v370
q0 9 -6 15t-15 6zM665 674h128v-114q0 -9 6.5 -15t15.5 -6t15 6t6 15v157h-171q-9 0 -15 -6.5t-6 -15.5t6 -15t15 -6zM665 674z" />
    <glyph glyph-name="uniE603" unicode="&#xe603;" 
d="M167 402q-8 1 -9 1q-16 1 -22.5 7t-6.5 21v137v31q1 24 28 24h76q-2 2 -4.5 5t-4.5 4q-48 53 -21 115q26 60 97 72q82 13 132 -50q36 -46 72 -120q1 -1 7 -14q2 5 6 12.5t5 11.5q33 66 68 110q43 55 117 52q45 -2 79.5 -30.5t40.5 -68.5q7 -53 -32 -93q-1 0 -1.5 -1
t-1.5 -2l-3 -3h46h32q25 -1 25 -23q1 -81 0 -173q0 -22 -25 -23q-2 -1 -12 -1v-12v-360q0 -17 -7 -23t-26 -6h-622q-19 0 -26 6t-7 23v360v11zM215 403v-359h184v359h-184zM808 403h-185v-359h185v359zM574 44v359h-126v-359h126zM400 580h-222v-134h222v134zM844 580h-221
v-134h221v134zM461 630l-2 6q-38 69 -44 78q-19 31 -37 47q-30 27 -74 16.5t-58 -47.5q-13 -32 6 -61t52 -32q3 -1 22 -3.5t29 -3t106 -0.5zM559 627q121 5 132 6q32 2 53 13q24 12 33 36.5t-1 47.5q-16 40 -63 48q-52 8 -77 -25q-15 -20 -57 -87q-1 -1 -20 -39zM574 446
v135h-126v-135h126z" />
    <glyph glyph-name="uniE604" unicode="&#xe604;" horiz-adv-x="1000" 
d="M763 637q-9 2 -19 2h-504h504q10 0 19 -2zM787 630q-1 1 -3 1q1 0 3 -1zM829 595q-2 3 -5 7q3 -4 5 -7zM865 44q-4 -1 -9 -1h-16v513q0 10 -3 19q3 -9 3 -19v-513h16q5 0 9 1zM882 48q-4 -1 -8 -3q4 2 8 3zM923 729q-28 23 -67 23h-569q-39 0 -66 -23q-30 -24 -30 -60
v-30h-17q-39 0 -66 -23q-30 -24 -30 -60v-592q0 -36 30 -61q28 -22 66 -22h570q38 0 66 22q30 25 30 61v30h16q39 0 67 22q30 25 30 61v592q0 36 -30 60zM790 -36q0 -14 -13.5 -24t-32.5 -10h-570q-19 0 -33 10t-14 24v592q0 14 14 24t33 10h17h49h504q19 0 32.5 -10
t13.5 -24v-592zM903 77q0 -11 -8 -20q-1 0 -2 -1q-2 -2 -5 -4q-1 -1 -2 -1q0 -1 -2 -1q-1 -1 -2 -1v-1q-4 -1 -8 -3h-3l-1 -1h-5q-4 -1 -9 -1h-16v513q0 10 -3 19q0 2 -0.5 3.5t-1.5 3.5q0 1 -1 3l-2 4q-1 3 -3 6t-5 7t-7 8t-7 6q-2 2 -4 3l-1 1q-2 2 -4 3q-6 4 -14 7
q-2 1 -3 1q-2 1 -5 2l-2 1q-4 1 -9 2q-1 1 -2 1h-3q-9 2 -19 2h-504v30q0 5 2.5 10t6.5 9q14 15 38 15h569q20 0 33.5 -10t13.5 -24v-592zM206 537h366v-49h-366v49zM677 511zM651 512q0 11 7.5 18.5t18.5 7.5t18.5 -7.5t7.5 -18.5v-2q0 -10 -7.5 -18t-18.5 -8t-18.5 8
t-7.5 18v2zM127 444h663v-49h-663v49z" />
    <glyph glyph-name="uniE605" unicode="&#xe605;" 
d="M811 256h-194v-57h194v57zM811 362h-194v-57h194v57zM811 468h-194v-57h194v57zM348 160q63 0 107.5 44t44.5 106h-152v-150zM306 201v150h151q0 62 -44 106t-107 44t-107 -44t-44 -106t44 -106t107 -44zM899 71h-784v505h784v-505zM533 725v84h-59v-84h-468v-149h51
v-563h358l-218 -177l37 -45l273 222h2l273 -222l37 45l-218 177h357v563h62v149h-487z" />
    <glyph glyph-name="uniE606" unicode="&#xe606;" 
d="M572 -148h-62q-30 0 -44 13q-18 18 -18 41v202h-64v511q0 60 34 92.5t94 32.5t94 -32.5t34 -92.5v-713q0 -19 -20 -40q-14 -14 -48 -14zM928 588h-224q-13 0 -22.5 9.5t-9.5 22.5t9.5 22.5t22.5 9.5h224q13 0 22.5 -9.5t9.5 -22.5t-9.5 -22.5t-22.5 -9.5zM928 396h-224
q-13 0 -22.5 9.5t-9.5 22.5t9.5 22.5t22.5 9.5h224q13 0 22.5 -9.5t9.5 -22.5t-9.5 -22.5t-22.5 -9.5zM928 204h-224q-13 0 -22.5 9.5t-9.5 22.5t9.5 22.5t22.5 9.5h224q13 0 22.5 -9.5t9.5 -22.5t-9.5 -22.5t-22.5 -9.5zM352 320v428h-96v-416h-32v416h-64v-416h-32v416
h-96v-428q0 -17 25 -37q3 -2 30 -15q9 -4 9 -7v-352q0 -5 1.5 -9t3 -7t5 -7.5t5.5 -6t6.5 -6.5t5.5 -6q16 -15 54 -15h62q23 0 38 15q5 6 8 13.5t3 11.5v17v352q0 1 4.5 2t10.5 2.5t8 2.5q23 11 29 15q3 3 5.5 6.5t4 6.5t2 7t0.5 6v6v5z" />
    <glyph glyph-name="uniE607" unicode="&#xe607;" 
d="M633 665q23 -5 38.5 -25t17.5 -50q0 -9 1 -28.5t1 -41t-1.5 -39t-5.5 -21.5q-6 -7 -11.5 -6.5t-5.5 -5.5q0 -3 -1.5 -21.5t-9.5 -51.5q-4 -17 -11.5 -31t-15.5 -25q-11 -13 -21 -23q-1 -13 -1 -25v-22q0 -11 1 -17q1 -13 6.5 -18t20.5 -9q5 -2 18.5 -6t31.5 -10.5t38 -14
t38.5 -14t33 -12t21.5 -8.5q21 -11 27.5 -22t11.5 -29q2 -9 5.5 -33.5t7.5 -51t7 -50t4 -30.5q1 -13 -5 -22t-26 -14q-18 -4 -51 -9t-77 -9t-97 -6.5t-111 -2.5t-111.5 2t-98 5.5t-79 8t-53.5 10.5q-4 1 -10 4t-12 7.5t-9 11t-2 14.5t5.5 33t11 53.5t11.5 53.5t7 31
q4 13 11.5 26t26.5 28q9 7 33.5 15t51.5 15.5t50.5 12.5t30.5 7q15 3 27 7.5t12 12.5v60q-12 9 -22 20q-9 9 -18 22t-17 27q-14 28 -18 51t-5 27t-7.5 6.5t-10.5 11.5q-8 17 -7.5 36.5t2.5 55.5q3 36 12 68.5t38 60.5q16 13 41.5 22t52 13t50.5 4t37 -3q13 -4 21 -9t13 -9
t8 -7.5t6 -5.5q5 -4 13 -2.5t29 -2.5zM539 104l27 -107l45 121l-43 31zM465 151l-41 -33l46 -121l25 108zM829 551q15 -2 23.5 -14t9.5 -30q0 -5 1 -17t1 -24t-1 -23t-3 -13q-4 -4 -7.5 -3.5t-3.5 -3.5q0 -2 -0.5 -12.5t-5.5 -31.5q-2 -10 -6 -18t-10 -15q-5 -7 -12 -13
q-1 -8 -1 -15v-24q1 -7 4 -10t12 -5q5 -1 20 -6t33 -12t33.5 -12.5t21.5 -8.5q12 -6 16.5 -13t7.5 -18q1 -5 3 -19.5t4 -30.5t4 -29.5t2 -17.5q1 -8 -2.5 -14t-16.5 -8q-10 -2 -26.5 -5t-42.5 -5q-2 12 -6 24q-3 10 -7.5 21t-10.5 20q-11 15 -23.5 24t-24.5 15.5t-24.5 10
t-24.5 7.5q-52 18 -84 25.5t-36 12.5q-2 3 -2.5 7t-0.5 9t1 12q14 4 21.5 5t11.5 2q8 2 15 4.5t7 7.5v36l-6 3q-2 1 -4 5q6 13 12 32q6 16 11.5 39.5t9.5 56.5q3 26 4 46.5t1 35.5v32q12 2 26 2t22 -2q18 -5 21.5 -10.5t7.5 -8.5q4 -2 8.5 -1.5t16.5 -1.5zM777 223l7 -27
l19 -6l14 37l-21 18zM724 242l-17 -17l1 -5l31 -9l4 11zM269 574q-16 2 -32 1q-15 -1 -32 -5t-31 -15q-12 -8 -19.5 -19t-11 -23t-4.5 -22t-1 -17q-1 -13 -2 -23.5t1 -19t3 -11.5t4 -5t5.5 -2.5t4.5 -13.5q1 -14 6.5 -26.5t11.5 -21.5q3 -5 7.5 -9.5t9 -9.5t10.5 -10v-30
q-1 -6 -5 -10t-14 -6q-5 -1 -16.5 -4t-25.5 -7l-28 -8q-14 -4 -22 -7q-30 -14 -36 -49q-4 -16 -9 -41l-7 -35q-2 -10 0.5 -21.5t16.5 -14.5q7 -2 18 -3t21 -3q11 -2 24 -3q2 12 6 25q3 11 8.5 22t13.5 22q9 9 20.5 17.5t22.5 17.5q13 9 27 17l-10 26l22 17l24 -27l12 3
q2 0 6 2q2 1 4 1l20 23l17 -14q5 1 9.5 2t9.5 2l10 2q11 2 19 4t9 10q0 4 0.5 6.5t0.5 4.5v3q-10 4 -18 7l-14 4q-7 2 -11 4q-9 3 -10 8.5t-1 14.5v11q0 5 1 10q0 5 1 12q-8 12 -16 27q-7 12 -13.5 28t-11.5 33q-5 24 -7 50.5t-1 48.5q0 25 3 50z" />
    <glyph glyph-name="uniE608" unicode="&#xe608;" 
d="M920 501h-131q0 111 -78.5 189t-189 78t-189 -78t-78.5 -189h-131q-8 0 -14 -6t-6 -14v-653q0 -9 6 -14.5t14 -5.5h797q8 0 14 5.5t6 14.5v653q0 8 -6 14t-14 6zM521.5 708q85.5 0 146 -60.5t60.5 -146.5h-413q0 86 60.5 146.5t146 60.5zM254 441v1h61v-1
q0 -85 60.5 -146t146 -61t146 61t60.5 146v1h61v-1q0 -111 -78.5 -189t-189 -78t-189 78t-78.5 189zM850 -7v-23h-58v-40h58v-22h-58v-35h-36v35h-60v22h60v40h-60v23h51l-90 143h42l74 -127l76 127h42l-91 -143h50z" />
    <glyph glyph-name="uniE609" unicode="&#xe609;" 
d="M248 468h-146q-9 0 -20.5 -9t-11.5 -18v-52h199v52q0 9 -6.5 18t-14.5 9zM70 -143q0 -8 11.5 -17.5t20.5 -9.5h146q8 0 14.5 9t6.5 18v93h-199v-93zM70 349h199v-320h-199v320zM554 788h-130q-8 0 -21.5 -17t-13.5 -25v-78h200v78q0 9 -13.5 25.5t-21.5 16.5zM389 -138
q0 -8 13.5 -20t21.5 -12h130q8 0 21.5 12t13.5 20v766h-200v-766zM969 -109l-23 64l-133 -47l22 -63q5 -13 21 -7l100 35q17 6 13 18zM819 320q-6 16 -23 9l-100 -34q-16 -6 -10 -22l121 -346l133 47z" />
    <glyph glyph-name="uniE60A" unicode="&#xe60a;" 
d="M620 269l-32 -34l-24 22l-29 28l52 56q44 -19 85.5 -13t72.5 33q18 15 27.5 41t11.5 44l1 18l-32 13l-61 -63l-89 90l61 62l-12 33q-7 0 -18.5 -1.5t-38.5 -11.5t-46 -29q-29 -29 -36 -71.5t13 -86.5l-53 -52l-77 75l-5 53l-72 47l-20 -21l-21 -20l-20 -21l46 -73l49 -4
l79 -76l-201 -199q-6 -37 17 -60q9 -9 22.5 -13t22.5 -3h9l195 212l29 -27l21 -21l-40 -42q86 -88 173 -177q82 23 114 116q-79 79 -174 176zM307 76q-7 -7 -17 -7.5t-17 7t-7 17.5t7 17t16.5 7t16.5 -7t7.5 -17t-6.5 -17zM685 23l-131 133l19 20l137 -138zM732 60l-137 138
l20 20l132 -133z" />
    <glyph glyph-name="uniE60B" unicode="&#xe60b;" 
d="M492 487q12 3 69 22.5t93 23.5q8 -2 14.5 -9.5t10 -15t11.5 -11.5t19 -1q2 7 9 10.5t20.5 6.5t17.5 4.5t10.5 5.5t9.5 4q18 4 38 -6q2 -6 12 -18t13 -21q20 -27 32 -53q3 -4 7.5 -13.5t7.5 -15t6 -13.5t5 -15q5 -4 6 -5q6 -17 24 -59t25 -69q10 -11 6 -24q-6 -5 -23.5 -9
t-23.5 -7q-4 -1 -14 -6t-17 -7t-13 -1t-13.5 10t-8.5 10q-17 -19 -25.5 -28t-24.5 -22.5t-32 -22.5q-5 -1 -43 -11t-58 -10q-2 0 -6.5 1t-7.5 0q-4 -1 -8.5 -7t-10.5 -15.5t-7 -11.5q-2 -2 -6.5 -7.5t-6.5 -9.5q-2 -2 -5 -9t-5 -10q-2 -2 -6.5 -5.5t-6.5 -6.5q-1 -1 -6.5 -9
t-8.5 -11.5t-8.5 -8t-11.5 -4.5q-12 -2 -40 3q-12 3 -34 13t-35 13q-3 -2 -10 -12t-16 -10t-30 5t-26 8q-3 2 -6 8t-5 8t-9 4.5t-10 4.5q-8 6 -19 17q-5 5 -12.5 16.5t-12 15t-16.5 9.5t-17 11q-6 5 -13 15t-10 13q-1 7 0 13q-33 24 -45 38q-17 20 -6 32q-3 6 -13 9t-13 5
t-5.5 9t-5.5 9q-6 5 -26 12t-27 11q-1 1 -7.5 6t-13.5 6q0 2 -1 7t-2 7q8 14 26.5 44t29.5 47t27.5 41t33 43t35.5 35q1 4 3.5 7.5t8 8.5t6.5 7q40 43 60 55q2 1 3 4t2 4q5 3 9 4t8.5 -0.5t6.5 -2.5t8 -4.5t8 -4.5q18 -11 68 -39q12 0 15 2q9 -8 31.5 -32t37.5 -35zM311 555
q0 -1 -1.5 -1.5t-1.5 -2.5q0 -6 -1.5 -20.5t-1.5 -19.5q-2 -29 5 -36q3 0 5.5 1t3 4t0.5 5.5t-0.5 7t-0.5 7.5q0 5 0.5 18.5t0 22.5t-4.5 14h-3zM292 550q-1 -2 -4 -4.5t-4 -5.5q1 0 2 -1q4 -1 3 -3q-5 -41 -2 -91q12 8 12 19q-10 11 -6 42t-1 44zM335 497q20 26 24 35
q-4 3 -13.5 7t-12.5 6q-5 -29 2 -48zM264 490q-1 -6 -2 -18t-1.5 -19.5t-0.5 -17.5t3 -18q2 1 3 0t3 2t2.5 3t2.5 4l2 3q-5 14 -2 51.5t-1 51.5q-4 -2 -6 -7t-2.5 -9t-0.5 -12v-14zM427 487q-3 1 -10 8.5t-11 9.5q-1 0 -3.5 -0.5t-3.5 0.5q-2 0 -5 3.5t-4.5 3.5t-6.5 -1
q-2 -1 -1 -3.5t0 -2.5q-2 0 -7 -3q-8 -9 -44.5 -52t-53.5 -69q-8 -5 -15 -12t-15.5 -18t-11.5 -15q-5 -6 -20.5 -22t-24.5 -28t-14 -27q13 -10 30 -16l13 13l10 10q4 1 10.5 -1t11.5 -1q7 -7 22 -24.5t25 -25.5q3 -13 20 -25t22 -20q1 -1 1.5 -4.5t0.5 -4.5q9 -9 28 -22.5
t28 -20.5q61 1 68 -17q4 -8 -4.5 -23t-7.5 -23q47 -30 79 -30q21 0 27 24q-11 8 -39 27q-9 5 -25 14t-19 11q-1 1 -4 3.5t-4 3.5q-2 1 -6.5 2.5t-5.5 2.5q-12 7 -12 21t19 11q6 -1 20.5 -10t18.5 -11q7 -4 19.5 -13t16.5 -11q3 -3 10.5 -5t9.5 -4q1 0 9 -7t14 -7q10 8 18 25
q-18 19 -67 53q-3 2 -8.5 6.5t-8.5 6.5q-4 2 -21.5 12.5t-23.5 17.5q-14 15 2 23q13 7 26 -3q22 -18 67 -48.5t57 -38.5q3 6 13 17.5t14 19.5q-21 25 -46 35q-22 17 -59 37q-5 2 -13.5 6t-12.5 6q-5 3 -11 10t-5 12q2 23 50 -2q6 -3 62 -36q28 -16 56 -37q18 26 20 36
q-18 29 -71.5 62t-67.5 47q-10 -2 -70 -18t-96 -16q-2 4 -6 7.5t-5 6.5q-2 8 -6 23.5t-6.5 28t-3.5 24.5q-1 3 1.5 4t2.5 2q-5 2 -7 12t-4 12q6 8 19 13q14 6 41.5 15.5t34.5 12.5q-1 3 -4 5.5t-8.5 5.5t-7.5 6zM253 507q-1 0 -2 0.5t-2 0.5q-4 -2 -6 -7t-2.5 -8.5
t-0.5 -12.5v-11q-6 -69 -5 -83q15 11 17 17q-6 19 -5 33.5t4 37.5t2 33zM685 470q-5 3 -11.5 14t-13.5 18t-15 6q-26 -3 -71 -20t-51 -19q0 -6 3.5 -15.5t3.5 -16.5q0 -16 -5 -25t-16 -19q-38 -31 -74 -7q-5 3 -11.5 12t-11 15.5t-12 9t-13.5 -7.5q1 -31 13 -77q10 0 18.5 1
t19 3t15 3.5t18 5.5t16.5 5q5 2 17 6.5t21 7t16 2.5q3 -1 9 -5t9 -5h5h5q3 -1 8.5 -6.5t7.5 -6.5q39 -31 54 -32q35 -5 53 10q2 2 6.5 9t9.5 8q9 3 17.5 -4t6.5 -16q-2 -7 -21 -19q-4 -3 -11 -6.5t-11.5 -6.5t-6.5 -7q1 -1 9.5 -8t11.5 -10t8 -9.5t7 -11.5q5 -12 3 -19
q-3 -8 -11 -23t-11 -24q-14 -11 -25 -35q86 7 124 55q9 21 22 28q1 -1 4.5 -1.5t6 -1.5t4.5 -3q-30 55 -33 65q-34 97 -73 173q-6 2 -16 2.5t-16.5 1.5t-11.5 6zM767 455q1 -1 2.5 -6t3 -7.5t4.5 -4.5q15 23 22 47q-13 23 -28 -16q-4 -11 -4 -13zM755 484q2 -12 6 -13
q3 2 6 16q-5 3 -12 -3zM225 481q-15 -13 -17 -30q-1 -11 -2 -34.5t-1 -26.5q-2 -9 -1.5 -19.5t7.5 -14.5q11 7 9 29q-1 15 4 49.5t4 46.5h-3zM808 469q-4 -4 -6 -9t-4.5 -12.5t-4.5 -11.5q0 -1 -2.5 -6t-2.5 -7l-2 -6q-1 -4 0.5 -6.5t4.5 -4.5q16 24 23 58q-2 0 -3.5 2.5
t-2.5 2.5zM466 403q7 0 12 3.5t11 10.5t9 10q-1 3 0 10t-0.5 11.5t-7.5 6.5q-3 -1 -24.5 -8t-31.5 -12q17 -32 32 -32zM798 391q1 -2 2 -7.5t3 -8.5q5 7 10 16.5t10.5 21.5t8.5 19q-1 0 -3 5.5t-6 5.5h-2q-5 -7 -11 -26t-12 -26zM189 384q7 10 6 50q-2 -11 -6 -50zM175 416
l1 -1q2 -1 3 0q2 1 1.5 4t-2.5 3q0 -1 -2 -2.5t-1 -3.5zM811 358q1 -2 2 -8t2 -7q5 5 8.5 12.5t8.5 21.5t5.5 16t2.5 5.5t2.5 5.5t1 4.5t-1 4t-4.5 3.5q-6 -9 -14 -29t-13 -29zM166 325q6 13 8 42t5 39l-1 1t-2 1q-1 -7 -4.5 -25.5t-4.5 -32t-1 -25.5zM153 348q7 17 7 49
q-7 -4 -8 -13t0.5 -20.5t0.5 -15.5zM827 317q3 2 5.5 6.5t4.5 12t4 12.5q2 3 5.5 9.5t5.5 11t3.5 9.5t0 8.5t-5.5 5.5q-3 -7 -9.5 -23t-10 -29t-3.5 -23zM184 330q3 -1 4.5 0t3 3t2.5 3q-4 5 -3.5 22.5t-1.5 23.5q-7 -32 -5 -52zM846 317q27 40 18 50q-15 -26 -18 -50z
M861 303q0 2 7 16.5t6 23.5q-15 -32 -13 -40zM123 306v6q0 6 -0.5 10.5t-3.5 4.5q1 -2 -0.5 -8t-1 -9.5t5.5 -3.5zM881 323q-13 -27 -20 -70h3q1 0 2.5 -0.5t2.5 -0.5q1 6 6 17.5t9.5 20.5t4.5 18.5t-8 14.5zM149 285q8 4 10 12q-3 1 -4.5 4t-2.5 7t-2 6q-6 2 -9 1
q0 -6 4 -15t4 -15zM881 223q21 3 25 10q-1 11 0 21.5t-1 20.5t-11 15q-1 -7 -6.5 -21t-7 -21.5t0.5 -24.5zM849 265q2 7 2 12q-2 0 -4 1.5t-3 2.5q-3 -5 -1 -10t6 -6zM237 230l-1 -4q0 -5 -0.5 -6t-1.5 -4.5t-2 -4.5l-3 -3q-2 -2 -4.5 -3t-5.5 -1q5 -10 8 -14t9.5 -9
t15.5 -7q19 13 11.5 30.5t-26.5 25.5zM293 169q-2 -2 -12.5 -10t-13.5 -15q5 -3 15.5 -14t17.5 -16q14 11 14 32t-21 23zM371 99q-1 3 -3 6t-6 5.5t-6.5 4t-7.5 4t-7 2.5q-10 -10 -17 -25q6 -11 9.5 -16.5t11 -12t15.5 -7.5q1 3 6.5 17.5t4.5 21.5zM401 89q-12 -18 -13 -51
q15 -6 23 -4q0 1 2 1q1 12 10 28t11 25q-17 2 -33 1z" />
    <glyph glyph-name="uniE60C" unicode="&#xe60c;" 
d="M1012 560v1v1l-134 266q-15 30 -48 30h-636q-33 0 -48 -29l-135 -270q-10 -23 -10 -41q0 -7 2 -17q8 -39 37.5 -67t69.5 -35v-456q0 -15 10.5 -25.5t25.5 -10.5h732q15 0 25.5 10.5t10.5 25.5v456q41 7 70.5 36t37.5 69v2v2q1 3 1 12q0 16 -11 40zM841 -20h-658v427
q24 11 44 31q12 -13 29 -23v-289q0 -15 10.5 -25.5t25.5 -10.5h439q15 0 26 10.5t11 25.5v289q17 10 29 23q19 -20 44 -31v-427zM329 163v235q52 2 88 40q39 -41 95 -41t95 41q36 -38 88 -40v-235h-366zM892 470q-22 0 -38.5 15t-19.5 36q-1 14 -12 23t-25 9
q-13 0 -23.5 -8.5t-13.5 -22.5v3v1q-1 -23 -17.5 -39.5t-40.5 -16.5q-23 0 -40 16t-18 39v-2v-1q-2 14 -12.5 23t-24.5 9t-24.5 -8.5t-12.5 -22.5q-2 -22 -18.5 -37.5t-39.5 -15.5t-39.5 15t-18.5 37q-2 14 -12.5 23t-24.5 9t-24.5 -8.5t-12.5 -22.5v3v1q-1 -24 -18 -40.5
t-40 -16.5t-39.5 15t-18.5 37q-2 14 -12.5 23t-24.5 9t-24.5 -8.5t-12.5 -22.5v3q-1 -24 -18 -40t-40 -16t-39.5 14.5t-18.5 36.5l131 263h613l132 -263q-3 -22 -19.5 -36.5t-38.5 -14.5z" />
    <glyph glyph-name="uniE60D" unicode="&#xe60d;" 
d="M789.5 -54q-23.5 0 -40 -16.5t-16.5 -40t16.5 -40t40 -16.5t40.5 16.5t17 40t-17 40t-40.5 16.5zM427 -54q-23 0 -40 -16.5t-17 -40t17 -40t40 -16.5t40 16.5t17 40t-17 40t-40 16.5zM295 134l-56 348q-8 41 -23.5 75t-33.5 55t-41 36.5t-41 23t-36.5 11.5t-25.5 4.5
t-10 0.5l-1 -54q7 0 16.5 -1t33 -10t43 -24.5t39 -48.5t26.5 -77l56 -345q1 -19 8.5 -40.5t22 -43t42 -35.5t62.5 -14h532v54h-532q-20 0 -36 8t-24 18.5t-13.5 24.5t-6.5 21t-1 13zM921 505q-102 0 -540 55q-5 0 -12 1t-24.5 -1.5t-30 -10.5t-20.5 -30t-3 -54
q8 -52 19.5 -122.5t19.5 -114.5l7 -45q1 -4 3 -10t10.5 -21.5t20.5 -27t33.5 -21t47.5 -9.5h379q24 0 44.5 10.5t32.5 25t21 30.5t12.5 25.5t3.5 10.5l47 223q2 3 3.5 9t1 21t-6.5 26.5t-23.5 20.5t-45.5 9z" />
    <glyph glyph-name="uniE60E" unicode="&#xe60e;" 
d="M401 811h-316q-28 0 -48 -21.5t-20 -51.5v-337q0 -30 20 -51.5t48 -21.5h316q28 0 48 21.5t20 51.5v337q0 30 -20 51.5t-48 21.5zM394 446q0 -15 -10 -26t-24 -11h-233q-15 0 -25 11t-10 26v248q0 15 10 26t25 11h233q14 0 24 -11t10 -26v-248zM904 812h-316
q-28 0 -48 -21.5t-20 -51.5v-337q0 -30 20 -51.5t48 -21.5h316q28 0 48 21.5t20 51.5v337q0 30 -20 51.5t-48 21.5zM896 447q0 -15 -10 -26t-24 -11h-233q-14 0 -24 11t-10 26v248q0 15 10 26t24 11h233q14 0 24 -11t10 -26v-248zM402 271h-316q-28 0 -48 -21.5t-20 -51.5
v-337q0 -30 20 -51.5t48 -21.5h316q28 0 48 21.5t20 51.5v337q0 30 -20 51.5t-48 21.5zM395 -94q0 -15 -10.5 -26t-24.5 -11h-233q-14 0 -24 11t-10 26v248q0 16 10 26.5t24 10.5h233q14 0 24.5 -10.5t10.5 -26.5v-248zM905 272h-316q-29 0 -49 -21.5t-20 -51.5v-337
q0 -30 20 -51.5t49 -21.5h316q28 0 48 21.5t20 51.5v337q0 30 -20 51.5t-48 21.5z" />
    <glyph glyph-name="uniE60F" unicode="&#xe60f;" 
d="M964 388q0 4 -1 6l-59 187v85q0 8 -6 13.5t-14 5.5h-727q-8 0 -13.5 -5.5t-5.5 -13.5v-79l-1 -2l-61 -190q-1 -3 -1 -6l-1 -44q0 -31 15 -58.5t41 -44.5q-2 -3 -2 -7v-310q0 -8 6 -13.5t14 -5.5h740q8 0 14 5.5t6 13.5v265q0 8 -6 13.5t-14 5.5t-13.5 -5.5t-5.5 -13.5
v-245h-702v280q16 -4 33 -4q33 0 61.5 16t44.5 43q17 -27 45.5 -43t61.5 -16t61 15.5t45 42.5q17 -26 45.5 -42t60.5 -16q34 0 62 16t45 43q17 -27 45.5 -43t61.5 -16q52 0 88.5 36.5t36.5 87.5v43zM177 646h687v-47h-687v47zM839 260q-36 0 -61 25t-25 60q0 8 -6 14t-14 6
h-2q-8 0 -13.5 -6t-5.5 -14q0 -35 -25.5 -60t-61 -25t-61 25t-25.5 60q0 8 -5.5 14t-13.5 6h-1q-8 0 -13.5 -6t-5.5 -14q0 -35 -25.5 -60t-61 -25t-61 25t-25.5 60q0 8 -6 14t-14 6h-1q-8 0 -14 -6t-6 -14q0 -35 -25 -60t-61 -25t-61.5 25t-25.5 60l1 41l56 174h699l56 -175
v-40q0 -35 -25 -60t-61 -25zM839 260z" />
    <glyph glyph-name="uniE610" unicode="&#xe610;" 
d="M873 580h-720l-65 -195q0 -45 31 -77t75 -32t75 32t31 77q0 -45 31.5 -77t75.5 -32t75 32t31 77q0 -45 31 -77t75 -32t75.5 32t31.5 77q0 -45 31 -77t75 -32t75 32t31 77zM225 614h576q16 0 27.5 10t11.5 23.5t-11.5 23t-27.5 9.5h-576q-16 0 -27.5 -9.5t-11.5 -23
t11.5 -23.5t27.5 -10zM726 270q-45 -43 -106.5 -43t-106.5 43q-45 -43 -106.5 -43t-106.5 43q-44 -43 -106 -43q-4 0 -8 1v-241q0 -28 20.5 -47t44.5 -19h524q29 0 47 19t18 47v241q-4 -1 -8 -1q-62 0 -106 43z" />
    <glyph glyph-name="uniE611" unicode="&#xe611;" 
d="M722 719h-420q-86 0 -147.5 -61.5t-61.5 -147.5v-420q0 -86 61.5 -147.5t147.5 -61.5h420q86 0 147.5 61.5t61.5 147.5v419q0 87 -61.5 148.5t-147.5 61.5zM725 103q0 -16 -11.5 -27.5t-27.5 -11.5h-348q-16 0 -27.5 11.5t-11.5 27.5v394q0 16 11.5 27.5t27.5 11.5h265
l122 -124v-309zM595 516h-254q-8 0 -13.5 -5.5t-5.5 -13.5v-394q0 -8 5.5 -13.5t13.5 -5.5h348q8 0 13.5 5.5t5.5 13.5v295h-74q-16 0 -27.5 11.5t-11.5 28.5v78zM381 437h116v-21h-116v21zM381 384h116v-20h-116v20zM381 332h116v-21h-116v21zM648 163h-267v21h267v-21z
M648 252v-21h-267v21h267zM633 419h59l-78 79v-60q0 -8 5.5 -13.5t13.5 -5.5z" />
    <glyph glyph-name="uniE612" unicode="&#xe612;" 
d="M300 418h-66q-7 0 -12 -6t-5 -15t5 -15t12 -6h66q7 0 11.5 6t4.5 15t-4.5 15t-11.5 6zM507 377h-69q-6 0 -11 -6t-5 -15t5 -15t11 -6h69q6 0 10.5 6t4.5 15t-4.5 15t-10.5 6zM300 336h-66q-7 0 -12 -5.5t-5 -14.5q0 -8 5 -14t12 -6h66q7 0 11.5 6t4.5 14q0 9 -4.5 14.5
t-11.5 5.5zM234 459h63q7 0 11.5 6.5t4.5 14.5q0 9 -4.5 15t-11.5 6h-63q-7 0 -12 -6t-5 -15q0 -8 5 -14.5t12 -6.5zM512 886q-102 0 -195 -40t-160 -107t-107 -160t-40 -195t40 -195t107 -160t160 -107t195 -40t195 40t160 107t107 160t40 195t-40 195t-107 160t-160 107
t-195 40zM348 181q0 -20 -14 -33.5t-34 -13.5h-69q-20 0 -34 13.5t-14 33.5v436q0 20 14 33.5t34 13.5h69q19 0 33.5 -13.5t14.5 -33.5v-436zM554 181q0 -20 -14 -33.5t-33 -13.5h-69q-20 0 -33.5 13.5t-13.5 33.5v436q0 20 10.5 33.5t30.5 13.5h75q19 0 33 -13.5t14 -33.5
v-436zM829.5 165.5q-11.5 -15.5 -30.5 -19.5l-79 -12q-20 -3 -36 8.5t-19 30.5l-67 422q-2 10 0.5 18.5t7.5 16t13.5 12.5t18.5 7l78 13q20 3 36 -9t19 -31l67 -421q3 -20 -8.5 -35.5zM507 460h-69q-6 0 -11 -5.5t-5 -15t5 -15.5t11 -6h69q6 0 10.5 6t4.5 15.5t-4.5 15
t-10.5 5.5z" />
    <glyph glyph-name="uniE613" unicode="&#xe613;" 
d="M847 -65h-56v348h-173v-348h-51h-394q-26 0 -36.5 10t-10.5 36v296v121l-10 -5h-1q-8 -3 -15 -3q-12 0 -22 9q-16 15 -9 37l3 6q30 86 44 129q7 23 10 57q1 23 11 33q11 10 33 10h1h1h1h1h1h1h1h1h1h1h1h1h1h1h1h1h1h1h1h1h1h1h1h1h1h1h1h1h1h1h1h1h1h1h1h1h1h1h1h1h1h1
h1h1h1h1h1h1h1h1h1h1h1h1h1h1h1h1h1h1h1h1h1h1h1h1h1h1h1h1h1h1h1h1h1h1h1h1h1h1h1h1h1h1h1h1h1h1h1h1h1h1h1h1h1h1h1h1h1h1h1h1h1h1h1h1h1h1h1h1h1h1h1h1h1h1h1h1h1h1h1h1h1h1h1h1h1h1h1h1h2h1h1h1h1h1h1h1h1h1h1h1h1h1h1h1h1h1h1h1h1h1h1h1h1h1h1h1h1h1h1h1h1h1h1h1h1h1h1
h1h1h1h1h1h1h1h1h1h1h1h1h1h1h1h1h1h1h1h1h1h1h1h1h1h1h1h1h1h1h1h1h1h1h1h1h1h1h1h1h1h1h1h1h1h1h1h1h1h1h1h1h1h1h1h1h1h1h1h1h1h1h1h1h1h1h1h1h1h1h1h1h1h1h1h1h1h1h1h1h1h1h1h1h1h1h1h1h1h1h1h1h1h1h1h1h1h1h1h1h1h1h1h1h1h1h1h1h1h1h1h1h1h1h1h1h1h1h1h1h1h1h1h1h1h1h1
h1h1h1h1h1h1h1h1h1h1h1h1h1h1h1h1h1h1h1h1h1h1h1h1h1h1h1h1h1h1h1h1h1h1h1h1h1h1h1h1h1h1h1h2h342q21 0 31.5 -10t12.5 -33q2 -35 11 -62q10 -33 34 -98q7 -19 10 -28q10 -28 -5 -42q-10 -8 -22 -8q-11 0 -23 6l-3 1q-1 1 -2 1v-6q-1 -8 -1 -12v-198v-197q0 -30 -10 -40
t-40 -10zM793 -64h54q29 0 38.5 10t10.5 39v197v198v12v7v1h2q1 0 3 -1t3 -1q12 -7 22 -7q11 0 20 9q15 13 5 40q-3 9 -10 27q-23 65 -34 98q-8 28 -11 63q-2 22 -11.5 32t-30.5 10h-1h-1h-1h-1h-1h-1h-1h-1h-1h-1h-1h-1h-1h-1h-1h-1h-1h-1h-1h-1h-1h-1h-1h-1h-1h-1h-1h-1
h-1h-1h-1h-1h-1h-1h-1h-1h-1h-1h-1h-1h-1h-1h-1h-1h-1h-1h-1h-1h-1h-1h-1h-1h-1h-1h-1h-1h-1h-1h-1h-1h-1h-1h-1h-1h-1h-1h-1h-1h-1h-1h-1h-1h-1h-1h-1h-1h-1h-1h-1h-1h-1h-1h-1h-1h-1h-1h-1h-1h-1h-1h-1h-1h-1h-1h-1h-1h-1h-1h-1h-1h-1h-1h-1h-1h-1h-1h-1h-1h-1h-1h-1h-1
h-1h-1h-1h-1h-1h-1h-1h-1h-1h-1h-1h-1h-1h-1h-1h-1h-1h-1h-1h-1h-1h-1h-1h-1h-1h-1h-1h-1h-1h-1h-1h-1h-1h-1h-1h-1h-1h-1h-1h-1h-1h-1h-1h-1h-1h-1h-1h-1h-1h-1h-1h-1h-1h-1h-1h-1h-1h-1h-1h-1h-1h-1h-1h-1h-1h-1h-1h-1h-1h-1h-1h-1h-1h-1h-1h-1h-1h-1h-1h-1h-1h-1h-1h-1
h-1h-1h-1h-1h-1h-1h-1h-1h-1h-1h-1h-1h-1h-1h-1h-1h-1h-1h-1h-1h-1h-1h-1h-1h-1h-1h-1h-1h-1h-1h-1h-1h-1h-1h-1h-1h-1h-1h-1h-1h-1h-1h-1h-1h-1h-1h-1h-1h-1h-1h-1h-1h-1h-1h-1h-1h-1h-1h-1h-1h-1h-1h-1h-1h-1h-1h-1h-1h-1h-1h-1h-1h-1h-1h-1h-1h-1h-1h-1h-1h-1h-1h-1h-1
h-1h-1h-1h-1h-1h-1h-1h-1h-1h-1h-1h-1h-1h-1h-1h-1h-1h-1h-1h-1h-1h-1h-1h-1h-1h-1h-1h-1h-1h-1h-1h-1h-1h-1h-1h-1h-1h-1h-1h-1h-1h-1h-1h-1h-1h-1h-1h-1h-1h-1h-1h-1h-1h-1h-1h-1h-1h-1h-1h-1h-2h-342q-21 0 -31 -10t-12 -32q-2 -34 -9 -57q-14 -44 -45 -130l-2 -6
q-7 -20 8 -35q9 -9 21 -9q7 0 14 4h1q6 3 12 5h1v-123v-296q0 -25 10 -35t35 -10h394h49v349h177v-349v0zM512 41h-281v244h281v-244zM233 43h277v240h-277v-240zM512 373q-22 0 -36 14q-16 16 -15 43q1 31 4 92q1 29 2 43h1h87h1v-7q2 -9 2 -14v-17q3 -64 4 -97
q1 -27 -15 -43q-14 -14 -35 -14zM468 564q0 -13 -1 -42q-3 -61 -4 -92q-1 -26 15 -42q13 -14 34 -14q20 0 34 14q15 16 14 42q0 33 -3 97l-1 17q0 4 -1 14q-1 4 -1 6h-86zM347 373h-1q-23 0 -37 17q-13 14 -11 31q2 25 10 74q3 19 5 28q1 9 4 28q2 9 3 13v1h90l-2 -18
l-6 -75q-3 -33 -6 -55q-2 -19 -16 -31.5t-33 -12.5zM322 563q-1 -4 -3 -13q-3 -18 -5 -27q-1 -10 -4 -29q-9 -48 -11 -73q-1 -17 11 -30q14 -16 36 -17h1q19 0 32.5 12.5t15.5 30.5l5 55l6 75l2 16h-86zM675 373q-19 0 -32.5 13.5t-15.5 35.5q-4 37 -11 111l-2 20v7v4v1h89
l1 -1q2 -13 7 -40q10 -61 15 -92q3 -23 -10 -40q-12 -16 -35 -19h-6zM616 563v-3v-7l2 -20q7 -74 11 -111q2 -21 14.5 -34.5t31.5 -13.5q3 0 6 1q22 2 34 18t9 39q-4 30 -15 92q-5 26 -7 39h-86zM840 373q-19 0 -32.5 13t-16.5 34q-5 29 -18 86q-5 25 -8 37q-1 4 -2 12
q-1 6 -2 10v1h1h21h20h37q4 0 8 -3.5t5 -6.5q22 -72 36 -121q6 -21 -6 -39q-12 -19 -36 -23h-7zM763 564q0 -3 2 -9q1 -8 2 -11q2 -13 8 -38q13 -57 17 -85q4 -21 17 -34t31 -13q3 0 7 1q23 3 35 22q11 17 5 38q-13 49 -36 120q-1 3 -4.5 6t-6.5 3h-37h-20h-20zM183 373h-7
q-24 4 -36 22q-11 18 -6 38q11 43 36 123q1 3 5.5 6.5t7.5 3.5h38h20h21h1v-1l-12 -54q-11 -52 -16 -77q-2 -8 -3 -15q-2 -20 -16 -33t-33 -13zM221 564h-38q-3 0 -6.5 -3t-4.5 -6q-25 -80 -36 -122q-6 -20 5 -37q12 -18 35 -21h7q18 0 31.5 12.5t15.5 31.5q1 7 3 16
q5 24 16 76q8 33 12 53h-21h-19zM847 -81h-71v349h-143v-349h-66h-394q-32 0 -47 15t-15 47v296v99q-6 -2 -11 -2q-19 0 -33 14q-23 22 -12 53l2 6q31 86 45 129q6 21 8 53q2 28 16 43q15 15 44 15h342h342q54 0 59 -58q3 -33 11 -58q10 -33 33 -98l1 -1q6 -18 9 -26
q14 -38 -9 -59q-14 -13 -32 -13q-7 0 -13 2v-193v-198q0 -36 -15 -51t-51 -15zM809 -48h38q23 0 28 5t5 28v198v188q-14 -10 -31 -13q-5 -1 -9 -1q-25 0 -43 18q-17 17 -22 43q-4 28 -17 85q-5 25 -8 37q-1 4 -2 12q-2 6 -2 10l-4 19h20q6 0 20 1h1h20q22 0 38 -1
q8 0 16 -6.5t11 -14.5q22 -71 36 -121q3 -13 2 -26l6 -2q8 -4 14 -4q5 0 10 4q7 6 1 24q-4 8 -10 26v1q-24 66 -34 99q-9 29 -12 66q-2 17 -7.5 22t-19.5 5h-342h-342q-15 0 -20.5 -5t-6.5 -22q-3 -36 -10 -61q-14 -44 -45 -130l-3 -6q-3 -11 5 -19q4 -4 10 -4q4 0 8 2h1
q6 2 9 4q-2 12 1 24q12 43 37 123q2 8 10 14.5t17 6.5q15 1 38 1h20q14 -1 21 -1h20l-4 -19l-12 -54v-1q-11 -51 -16 -76q-2 -8 -3 -14q-2 -25 -20.5 -42.5t-43.5 -17.5q-5 0 -9 1q-17 3 -31 12v-93v-296q0 -19 5.5 -24t24.5 -5h394h34v348h208v-348zM781 549q1 -1 1 -2
q2 -12 8 -37q13 -58 17 -87q3 -15 12 -24t21 -9h5q15 3 24 15q7 12 3 26q-13 48 -35 118h-34h-20h-2zM186 549q-24 -78 -35 -120q-4 -13 3 -24q8 -12 24 -15h5q12 0 21.5 8.5t10.5 21.5q1 8 3 18q5 25 16 74v3q5 21 8 34h-2h-19h-35zM527 25h-311v275h311v-275zM248 58h247
v210h-247v-210zM512 357q-28 0 -47 19q-20 21 -19 55q1 30 4 92q1 29 1 42l1 16h16h87h14l2 -15v-6h1q1 -10 1 -16l1 -16q3 -65 4 -97q1 -34 -20 -55q-18 -19 -46 -19zM483 548q0 -9 -1 -26v-1q-3 -61 -4 -91q0 -20 11 -31q9 -9 23 -9t23 9q11 11 10 31q-1 32 -4 96v17
q0 2 -1 5h-57zM347 357h-2q-29 1 -48 23q-17 18 -15 43t11 74v1q3 18 4.5 27.5t4.5 27.5v1q2 9 3 13l2 14h119l-3 -35q-4 -51 -6 -76q-3 -32 -5 -55q-3 -25 -21.5 -41.5t-43.5 -16.5zM334 548v0q-3 -19 -4 -28q-2 -9 -5 -28q-8 -48 -10 -72q-1 -10 6 -19q10 -11 25 -11h1
q13 0 22 8t10 21q3 22 6 54l6 75h-57zM675 357q-25 0 -43 18t-20 46q-4 37 -11 111l-2 20v9v3v17h117l3 -14q2 -13 7 -39v-1l15 -93q4 -29 -12 -51q-17 -22 -46 -25q-4 -1 -8 -1zM632 548l1 -13q7 -74 11 -111q1 -16 9.5 -25t21.5 -9h4q16 2 24 13t6 26q-5 31 -15 92
q-3 17 -5 27h-57zM608 727q-249 0 -431 1q-23 0 -34 6q-18 10 -19 45q0 37 18 48q11 6 31 6h204h68h68h336q28 0 38 -10t10 -38v-3v-22q-3 -28 -32 -32q-6 0 -19 -1h-238zM377 832q-122 0 -204 -1q-19 0 -30 -6q-17 -10 -17 -46q0 -34 18 -43q11 -6 33 -7h431h238q12 0 19 1
q27 4 30 30q1 8 0 22v3q0 27 -9.5 37t-36.5 10h-336h-68h-68zM608 712h-431q-27 0 -42 9q-26 14 -26 58q-1 45 26 61q14 8 38 9h204h61h7h68h336q34 0 49 -15t15 -49v-2q0 -16 -1 -24q-2 -19 -14 -31t-31 -15q-7 -1 -21 -1h-27h-211zM377 816h-204q-15 0 -22 -4
q-10 -6 -10 -32q1 -26 10 -31q8 -4 27 -4h430h231h7h17q15 2 17 17v20v3q0 21 -5 26t-26 5h-336h-68h-68z" />
    <glyph glyph-name="uniE614" unicode="&#xe614;" 
d="M571 719h305q6 0 10.5 4.5t4.5 11t-4.5 11t-10.5 4.5h-305q-6 0 -10.5 -4.5t-4.5 -11t4.5 -11t10.5 -4.5zM876 612h-305q-6 0 -10.5 -4.5t-4.5 -10.5t4.5 -10.5t10.5 -4.5h305q6 0 10.5 4.5t4.5 10.5t-4.5 10.5t-10.5 4.5zM876 475h-305q-6 0 -10.5 -4.5t-4.5 -10.5
t4.5 -10.5t10.5 -4.5h305q6 0 10.5 4.5t4.5 10.5t-4.5 10.5t-10.5 4.5zM434 765h-275q-12 0 -21 -9t-9 -22v-274q0 -13 9 -22t21 -9h275q12 0 21 9t9 22v274q0 13 -9 22t-21 9zM434 460h-275v274h275v-274zM434 338h-275q-12 0 -21 -9t-9 -22v-274q0 -13 9 -22t21 -9h275
q12 0 21 9t9 22v274q0 13 -9 22t-21 9zM434 33h-275v274h275v-274zM861 338h-275q-12 0 -21 -9t-9 -22v-274q0 -13 9 -22t21 -9h275q13 0 21.5 9t8.5 22v274q0 13 -8.5 22t-21.5 9zM861 33h-275v274h275v-274z" />
    <glyph glyph-name="uniE615" unicode="&#xe615;" horiz-adv-x="1025" 
d="M1001 -23h-47v500q0 15 -10 25t-25 10h-116q-15 0 -25 -10t-10 -25v-500h-47v326q0 14 -10 24t-24 10h-117q-14 0 -24.5 -10t-10.5 -24v-326h-46v605q0 14 -10.5 24.5t-24.5 10.5h-117q-14 0 -24 -10.5t-10 -24.5v-605h-47v419q0 14 -10 24.5t-25 10.5h-116
q-15 0 -25 -10.5t-10 -24.5v-419h-47q-9 0 -16 -7t-7 -16.5t7 -16.5t16 -7h978q9 0 16 7t7 16.5t-7 16.5t-16 7zM209 -23h-93v407h93v-407zM442 -23h-93v593h93v-593zM675 -23h-93v314h93v-314zM908 -23h-93v488h93v-488zM151.5 535q19.5 0 33 14t13.5 33q0 7 -3 15l175 156
q11 -8 26 -8q11 0 22 6l167 -221q-3 -9 -3 -18q0 -19 13.5 -33t33 -14t33 14t13.5 33v2l173 122q11 -8 25 -8q19 0 32.5 14t13.5 33t-13.5 32.5t-33 13.5t-33 -13.5t-13.5 -32.5q0 -5 1 -11l-167 -118q-14 13 -32 13q-9 0 -18 -4l-170 224q2 7 2 12q0 20 -13.5 33.5
t-33 13.5t-33 -13.5t-13.5 -33.5q0 -4 1 -9l-178 -159q-10 5 -21 5q-19 0 -32.5 -13.5t-13.5 -32.5t13.5 -33t33 -14z" />
    <glyph glyph-name="uniE616" unicode="&#xe616;" 
d="M776 -60h-528q-76 0 -129.5 54t-53.5 130v527q0 76 53.5 130t129.5 54h528q76 0 129.5 -54t53.5 -130v-527q0 -76 -53.5 -130t-129.5 -54zM248 792q-58 0 -99.5 -41.5t-41.5 -99.5v-527q0 -59 41.5 -100t99.5 -41h528q58 0 99.5 41t41.5 100v527q0 58 -41.5 99.5
t-99.5 41.5h-528zM353 514v-2q0 -68 48.5 -116.5t117.5 -48.5q44 0 81.5 21.5t60.5 58.5q-17 -14 -38 -24q-27 -14 -60 -19q-2 -12 -15 -12h-40q-7 0 -11 4t-4 10v7q0 6 4 10.5t11 4.5h40q9 0 13 -7q30 5 55 17q36 18 63 52q5 21 5 42v1q-51 26 -82 63q-84 -64 -210 -64
q-19 0 -39 2zM583 500q9 0 15.5 -6.5t6.5 -16t-6.5 -16t-15.5 -6.5t-15.5 6.5t-6.5 16t6.5 16t15.5 6.5zM449 500q9 0 15.5 -6.5t6.5 -16t-6.5 -16t-15.5 -6.5t-15.5 6.5t-6.5 16t6.5 16t15.5 6.5zM603 713q6 -2 11 -5h1q1 -1 3 -2h1q4 -2 7 -4l4 -2q2 -2 3 -2l1 -1
q2 -1 3 -2l3 -2h1q1 -1 2 -1l1 -1l1 -1l2 -2l1 -1l2 -1l2 -1l2 -2l1 -1q1 0 1.5 -0.5t0.5 -1.5l1 -1l2 -1l2 -1q0 -1 2 -2l1 -1q0 -1 2 -2l1 -1l1 -1q66 -64 66 -155q0 -10 -1 -21v-1v-1l-1 -293q-24 46 -66.5 76.5t-91 39.5t-98.5 2t-96 -35.5t-76 -73.5v313v1v0v2
q3 86 65.5 146t149.5 60q43 0 83 -17zM277 52h226l-80 220q-60 -29 -99 -88.5t-47 -131.5zM540 52h215q-8 72 -46.5 131.5t-99.5 88.5z" />
    <glyph glyph-name="uniE617" unicode="&#xe617;" 
d="M512 -60q-14 15 -37 41t-82 100t-104 140.5t-82 144.5t-37 129q0 91 46 167.5t124.5 121t171.5 44.5t171.5 -44.5t124.5 -121t46 -167.5q0 -51 -35.5 -127.5t-85.5 -148t-100.5 -136t-85.5 -104.5zM512 717q-94 0 -161 -65t-67 -157t67 -157t161 -65t161 65t67 157
t-67 157t-161 65zM512 384q-47 0 -80.5 32.5t-33.5 78.5t33.5 78.5t80.5 32.5t80.5 -32.5t33.5 -78.5t-33.5 -78.5t-80.5 -32.5z" />
    <glyph glyph-name="uniE618" unicode="&#xe618;" 
d="M886 719q-82 82 -198.5 82t-198.5 -82l-196 -196q-9 -9 -9 -22.5t9.5 -23t23 -9.5t22.5 9l196 196q63 63 152.5 63t152.5 -63t63 -152.5t-63 -152.5l-328 -328l-328 328q-63 63 -63 152.5t63 152.5t152 63q15 0 31 -2h4q13 0 22 8t11 19q1 14 -7 24.5t-21 12.5
q-19 3 -40 3q-44 0 -86 -14q-64 -20 -112 -68q-82 -82 -82 -198.5t82 -198.5l351 -351q10 -9 23 -9t23 9l351 351q82 82 82 198.5t-82 198.5z" />
    <glyph glyph-name="uniE619" unicode="&#xe619;" horiz-adv-x="1026" 
d="M1025 2.5q0 3.5 -1 6.5v28v37v192v1v8v2v6q-1 20 -16 33q-13 11 -33 11h-417h-1h-1q-21 0 -35.5 -14.5t-14.5 -34.5v-208v-104q0 -9 2 -15q5 -16 18 -25t30 -9h12q29 -1 44 -1h3q95 0 221 1h60h23h57h2q16 0 29 10q17 14 17 38v31q1 3 1 6.5zM957 271q-26 -24 -80 -74
q-68 -61 -98 -91q-5 -5 -10 -7q-4 -1 -9 2q-3 2 -6 5q-30 30 -97 91q-55 49 -80 74h380zM968 -1v-26h-49h-15h-68q-129 -1 -221 -1h-3q-14 0 -43 1h-7v97v138q19 -18 57 -52q66 -61 96 -90q7 -7 14 -11q18 -12 37 -12q11 0 21 3q17 6 31 20q30 29 96 89q36 33 54 50v-131
v-37v-30q0 -2 1 -4q-1 -2 -1 -4zM307 377q-133 -41 -217.5 -162t-84.5 -271q0 -13 9.5 -22.5t22.5 -9.5t22.5 9.5t9.5 22.5q0 129 72 233t185 139q13 4 19 15.5t2 24.5t-15.5 19t-24.5 2zM760 615.5q0 99.5 -70.5 170t-170 70.5t-170 -70.5t-70.5 -170t70.5 -170t170 -70.5
t170 70.5t70.5 170zM343 615q0 73 52 125t125 52t124.5 -52t51.5 -125t-51.5 -124.5t-124.5 -51.5t-125 51.5t-52 124.5z" />
    <glyph glyph-name="uniE61A" unicode="&#xe61a;" horiz-adv-x="1028" 
d="M346 310l-275 -2q-2 0 -6 -1t-15 -6.5t-20 -12.5t-17.5 -21t-12.5 -31v-278v-8q0 -4 3.5 -16.5t10 -23t21.5 -22t36 -16.5h278q3 0 8.5 0.5t20 5t26 12.5t22 26.5t12.5 43.5v263q0 4 -0.5 9.5t-6 20t-14 25.5t-27.5 21t-44 11zM933 310l-275 -2q-3 0 -7 -1t-14.5 -6.5
t-19.5 -12.5t-18 -21t-12 -31v-278q-1 -3 -0.5 -7.5t3.5 -17t9.5 -23t21.5 -22t37 -16.5h277q3 0 9 0.5t20.5 5t26 12.5t22 26.5t12.5 43.5v263q0 4 -1 9.5t-6 20t-14 25.5t-27.5 21t-43.5 11zM346 896l-275 -2q-2 -1 -6 -2t-15 -6t-20 -12t-17.5 -21t-12.5 -31v-279v-7
q0 -5 3.5 -17.5t10 -23t21.5 -21.5t36 -16h278h9q5 0 19.5 4.5t26 13t22 26.5t12.5 43v264q0 3 -0.5 8.5t-6 20t-14 26t-27.5 21t-44 11.5zM980 725h-126v124v5q0 3 -2.5 10.5t-7 13.5t-14 11.5t-23.5 6.5h-5q-3 0 -11 -2.5t-14 -7t-11.5 -14t-5.5 -23.5v-124h-128
q-2 0 -5 -0.5t-10.5 -3.5t-13 -7.5t-10 -14t-4.5 -21.5v-5q0 -3 2.5 -11t7 -14t14 -11.5t23.5 -5.5h124v-127q0 -1 0.5 -4.5t3 -11.5t7 -14t14 -11t22.5 -5h5q3 0 11 2.5t14 7t11 14t6 22.5v127h126h5q3 0 11 2.5t14 7t11 14t6 23.5q1 0 -0.5 11t-13 22.5t-33.5 13.5z" />
    <glyph glyph-name="uniE61B" unicode="&#xe61b;" 
d="M529 884q29 0 57.5 -6.5t53.5 -17.5t44.5 -25t30.5 -28q26 -32 38 -70.5t17 -73.5q5 -40 5 -81q7 -5 11 -13q4 -7 6.5 -18t0.5 -27q-2 -21 -8.5 -33.5t-14.5 -19.5q-9 -8 -19 -11q-5 -17 -10 -32q-5 -13 -11.5 -25.5t-14.5 -19.5q-19 -15 -31 -25.5t-16 -35.5
q-3 -15 -2 -30.5t8.5 -31t23 -29.5t43.5 -25q25 -10 54.5 -18t57.5 -18.5t49.5 -26t30.5 -42.5q5 -16 7.5 -39.5t2.5 -47.5t-3.5 -45t-10.5 -32q-5 -7 -28.5 -14t-58 -13.5t-77 -11.5t-85.5 -8.5t-82.5 -5.5t-68.5 -2t-67.5 2t-79.5 5.5t-81.5 8t-73.5 9.5t-56 10t-29 10
q-10 8 -15.5 49t4.5 106q5 37 29.5 56.5t57 31t67.5 20.5t62 26q21 13 32 25t16 24t5 25t-1 29q-2 23 -16 36.5t-31 27.5q-8 7 -14 19.5t-11 25.5q-5 15 -10 32q-7 2 -14 7q-6 5 -13 14t-12 26q-6 17 -4.5 31t5.5 24q4 11 13 21q-1 38 4 76q4 32 14.5 69t31.5 66
q19 28 42.5 45.5t48 27.5t49 13.5t47.5 3.5z" />
    <glyph glyph-name="uniE61C" unicode="&#xe61c;" 
d="M778 546q-44 78 -122 122.5t-168 44.5q-125 0 -219 -81q-85 -73 -108 -181q-65 -19 -106 -73t-41 -121q0 -75 50 -132t123 -68v-2h573q102 0 175 72t73 174q0 96 -66.5 167t-163.5 78zM490 191q0 -20 -14.5 -34.5t-34.5 -14.5h-58q-21 0 -35.5 14.5t-14.5 34.5v49
q0 21 14.5 35t35.5 14h58q20 0 34.5 -14t14.5 -35v-49zM490 355q0 -20 -14.5 -34.5t-34.5 -14.5h-58q-21 0 -35.5 14.5t-14.5 34.5v49q0 20 14.5 34.5t35.5 14.5h58q20 0 34.5 -14.5t14.5 -34.5v-49zM672 191q0 -20 -14.5 -34.5t-34.5 -14.5h-58q-21 0 -35.5 14.5
t-14.5 34.5v49q0 21 14.5 35t35.5 14h58q20 0 34.5 -14t14.5 -35v-49zM658 394q9 -14 5 -30.5t-19 -25.5l-42 -25q-15 -9 -31.5 -4.5t-25.5 18.5l-21 36q-9 14 -5 30.5t19 25.5l42 25q14 8 31 4t26 -18zM658 394z" />
    <glyph glyph-name="uniE61D" unicode="&#xe61d;" 
d="M279 838q-85 0 -145.5 -60t-60.5 -145.5t60.5 -146t145.5 -60.5h207v206q0 86 -60.5 146t-146.5 60v0zM422 490zM961 632q0 86 -60.5 146t-145.5 60t-145.5 -60t-60.5 -146v-206h206q85 0 145.5 60.5t60.5 145.5v0zM612 632q0 59 42 101t101 42t101 -42t42 -101
t-42 -100.5t-101 -41.5h-143v142v0zM73 157q0 -86 60.5 -146.5t146 -60.5t146 60.5t60.5 146.5v206h-207q-85 0 -145.5 -60.5t-60.5 -145.5v0zM422 157q0 -59 -42 -101t-101 -42t-100.5 42t-41.5 101t41.5 100.5t100.5 41.5h143v-142v0zM755 363h-206v-206
q0 -86 60.5 -146.5t145.5 -60.5t145.5 60.5t60.5 146t-60.5 146t-145.5 60.5v0z" />
    <glyph glyph-name="uniE61E" unicode="&#xe61e;" 
d="M1003 352q0 62 -25 106.5t-61 47.5q-34 142 -147.5 234.5t-259.5 92.5t-259.5 -92.5t-147.5 -234.5q-36 -4 -60.5 -48.5t-24.5 -105.5q0 -64 26.5 -109.5t63.5 -45.5h22q6 0 18 3t17.5 8.5t13.5 16.5t11.5 27.5t6 41.5t2.5 58q0 116 -35 143q31 119 126.5 196t218 77
t218 -77t126.5 -197h2q-34 -26 -34 -142q0 -94 22 -128q-42 -73 -104 -124q-52 -43 -140 -60q-13 17 -38.5 27.5t-57.5 10.5q-43 0 -74 -19.5t-31 -47t31 -47.5t74 -20q56 0 88 30q114 54 168 99q50 42 115 127q12 -3 38 -3q38 0 64.5 45.5t26.5 109.5z" />
    <glyph glyph-name="uniE61F" unicode="&#xe61f;" horiz-adv-x="1000" 
d="M400 125h314v-25h-314v25zM400 356h128v-22h-128v22zM400 180h314v-27h-314v27zM400 406h128v-22h-128v22zM400 463h128v-28h-128v28zM400 231h314v-23h-314v23zM506 786q-92 0 -176 -36t-144.5 -97t-96.5 -144.5t-36 -176t36 -176.5t96.5 -144.5t144.5 -96.5t176 -36
t176 36t144.5 96.5t96.5 144.5t36 176.5t-36 176t-96.5 144.5t-144.5 97t-176 36zM301 153h-49v409v49h49h360v-49h-360v-409zM760 463v-363v-46h-46h-314h-46v46v363v46h46h314h46v-46zM557 463h157v-153h-157v153zM400 281h314v-22h-314v22z" />
    <glyph glyph-name="uniE620" unicode="&#xe620;" 
d="M844 296h-221l-111 -194l111 -193h221l111 193zM812 -36h-157l-79 138l79 138h157l79 -138zM733 489l-110 194h-221l-111 -194l111 -193h221zM434 351l-79 138l79 138h157l79 -138l-79 -138h-157zM181 296l-111 -194l111 -193h221l110 193l-110 194h-221zM370 -36h-157
l-79 138l79 138h157l79 -138zM370 -36z" />
    <glyph glyph-name="uniE621" unicode="&#xe621;" 
d="M501 -35h-359q-45 0 -61 15t-16 59v273q0 213 -1 275q0 29 11 40t40 10q306 -2 684 0q28 0 39 -9t11 -37q-1 -50 8 -59.5t58 -9.5q26 0 34.5 -11.5t8.5 -36.5v-209v-208q-1 -48 -23 -70t-70 -22h-364zM111 18q26 -3 27 -3q579 -1 626 -1q26 0 33.5 12t7.5 37q0 372 1 471
q0 32 -12.5 43t-44.5 11q-49 -1 -588 -1q-2 0 -50 -3v-566zM312 81q-9 0 -31.5 -1t-39 -0.5t-31.5 2.5q-9 2 -20.5 13t-12.5 20q-2 40 -2 102v102q0 20 9 28t29 8q103 -1 199 0q20 0 29 -8.5t8 -28.5q-1 -115 0 -199q1 -22 -8.5 -31t-31.5 -8q-6 1 -97 1zM453 422
q-198 0 -237 1q-6 0 -12.5 3.5t-14.5 9.5l-12 9q4 2 11.5 8t14 9t11.5 3q241 3 480 0q5 0 11.5 -3.5t14 -9.5t11.5 -8q-4 -2 -12.5 -8t-15 -9.5t-12.5 -3.5q-39 -1 -238 -1zM624 355q70 0 78 -1q4 -1 9 -4.5t11 -10t9 -8.5q-3 -3 -8.5 -10t-10 -11t-8.5 -4q-80 -3 -159 0
q-5 0 -9.5 4t-10 11t-8.5 10q3 2 9 8.5t11 10t10 4.5q8 1 77 1zM618 189q-68 0 -77 1q-7 1 -14.5 9t-7.5 14.5t8 14.5t14 9q82 3 165 0q4 0 8 -3.5t9.5 -9.5t7.5 -9q-2 -2 -7.5 -9.5t-10 -11.5t-8.5 -4q-10 -2 -87 -2v1zM592 81q-4 0 -14.5 -0.5t-18.5 -0.5t-15 2
q-4 1 -8.5 4t-9.5 8.5t-8 7.5q3 2 8.5 7t10.5 8t9 3q51 4 101 0q4 0 8 -3t9.5 -9t8.5 -8q-3 -2 -8.5 -7t-10 -8t-9.5 -3q-5 -1 -53 -1zM592 81z" />
    <glyph glyph-name="uniE622" unicode="&#xe622;" 
d="M512.5 752q-91.5 0 -174.5 -36t-143.5 -96t-96 -143t-35.5 -174.5t35.5 -174.5t96 -143.5t143.5 -96t174.5 -35.5t174.5 35.5t143 96t96 143.5t36 174.5t-36 174.5t-96 143t-143 96t-174.5 36zM589.5 454q20.5 0 35 -14.5t14.5 -35t-14.5 -35t-35 -14.5t-35 14.5
t-14.5 35t14.5 35t35 14.5zM515 416.5q0 -25.5 -18 -43.5t-43.5 -18t-43.5 18t-18 43.5t18 44t43.5 18.5t43.5 -18.5t18 -44zM275 547h138v-34h-103v-103h-35v137zM413 66h-138v137h35v-103h103v-34zM453.5 132q-43.5 0 -69 7t-33 18.5t-9 27t2.5 33.5q1 9 1 13
q5 43 32.5 71t75 28t74.5 -28t32 -71q1 -4 2 -12q4 -19 2.5 -34.5t-9.5 -27t-33 -18.5t-68.5 -7zM596 223l-1 12q-7 54 -41 89q17 6 35 6q43 0 67 -24.5t29 -62.5q0 -2 1.5 -13t1.5 -14v-11q0 -9 -1.5 -12t-4 -9.5t-7.5 -9t-12 -7t-16.5 -6t-23 -3t-29.5 -1.5q8 22 2 66z
M757 66h-137v34h103v103h34v-137zM757 410h-34v103h-103v34h137v-137z" />
    <glyph glyph-name="uniE623" unicode="&#xe623;" 
d="M532 232q37 29 58 71.5t21 91.5q0 85 -60 146t-145 61t-145.5 -61t-60.5 -146q0 -49 21 -91.5t58 -71.5q-96 -39 -156 -126t-60 -194q0 -18 3 -39h680q2 21 2 39q0 107 -59.5 194t-156.5 126zM743 364q36 29 57 71t21 90q0 84 -59 144t-144 60q-54 0 -97.5 -24t-70.5 -69
q81 0 147 -69t67 -157q1 -49 -13 -88t-53 -83q125 -47 185 -230h171q3 21 3 39q0 106 -59.5 192t-154.5 124z" />
    <glyph glyph-name="uniE624" unicode="&#xe624;" 
d="M995 35l-202 202l27 27l-27 27l-80 -81l-135 135l162 162q32 -11 67 -11q83 0 141 58q44 44 55.5 104t-13.5 117l-11 26l-87 -87l-70 -1l1 67l89 88l-26 12q-38 16 -79 16q-83 0 -142 -59q-41 -41 -53.5 -97.5t7.5 -111.5l-162 -162l-229 230l27 27l-148 148l-81 -81
l148 -148l27 27l229 -230l-162 -162q-32 12 -67 12q-83 0 -141 -59q-44 -43 -55.5 -103.5t13.5 -117.5l11 -25l88 88l67 1l-1 -70l-87 -87l26 -11q38 -16 79 -16q83 0 141 58q42 42 54.5 98t-7.5 111l162 162l135 -135l-81 -81l27 -27l27 27l202 -202q28 -28 67 -28t67 28
t28 67.5t-28 67.5zM174 696l-94 94l27 27l94 -94zM344 165l5 -12q20 -46 11 -94.5t-45 -84.5q-47 -47 -114 -47q-19 0 -36 4l56 56l1 125l-121 -2l-58 -58q-9 41 2 81t41 71q48 47 115 47q33 0 64 -13l12 -6l386 388l-5 11q-20 47 -10.5 95.5t44.5 83.5q48 48 115 48
q18 0 36 -4l-57 -58l-2 -122l124 2l56 56q10 -40 -1.5 -80.5t-41.5 -70.5q-47 -47 -114 -47q-34 0 -64 13l-12 5zM968 -73q-16 -17 -40 -17t-40 17l-202 202l80 81l202 -202q17 -17 17 -40.5t-17 -40.5zM968 -73z" />
    <glyph glyph-name="uniE625" unicode="&#xe625;" horiz-adv-x="1304" 
d="M1117 457q-9 0 -19 2l-14 -64q-1 -29 -11 -101.5t-19 -129.5l-9 -58h-788q-23 224 -29 292l-12 65q-17 -6 -32 -6q-42 0 -72 30t-30 72.5t30 72.5t72.5 30t72 -30t29.5 -73q0 -24 -12 -47l187 -70l157 255q-30 10 -49.5 36.5t-19.5 60.5q0 42 30 72t72 30t72 -30t30 -72
q0 -34 -19.5 -60.5t-50.5 -36.5l157 -255l186 74q-11 21 -11 43q0 43 30 73t72.5 30t72.5 -30t30 -72.5t-30 -72.5t-73 -30zM1045 -11q-31 -64 -71 -90.5t-104 -26.5h-438q-54 0 -102 28t-73 89v29h788v-29zM1045 -11z" />
    <glyph glyph-name="uniE626" unicode="&#xe626;" 
d="M522 189l3 -10q-3 3 -3 10zM522 189zM512 205q3 -10 10 -16zM512 205zM512 896q-138 0 -256 -69t-187 -187t-69 -256t69 -256t187 -187t256 -69t256 69t187 187t69 256t-69 256t-187 187t-256 69zM512 -74q-93 0 -178 36.5t-146 97.5t-97.5 146t-36.5 178t36.5 178
t97.5 146t146 97.5t178 36.5t178 -36.5t146 -97.5t97.5 -146t36.5 -178t-36.5 -178t-97.5 -146t-146 -97.5t-178 -36.5zM512 -74zM720 538h-83q-12 0 -20.5 -8.5t-8.5 -20.5t8.5 -20.5t20.5 -8.5h16l-128 -301q-3 0 -3 7l-160 294h28q12 0 20.5 8.5t8.5 20.5t-8.5 20.5
t-20.5 8.5h-115q-12 0 -20.5 -8.5t-8.5 -20.5t8.5 -20.5t20.5 -8.5h16l179 -333q5 -12 16.5 -20.5t25.5 -8.5t25.5 8.5t16.5 20.5l153 333h13q12 0 20.5 8.5t8.5 20.5t-8.5 20.5t-20.5 8.5zM720 538z" />
    <glyph glyph-name="uniE627" unicode="&#xe627;" 
d="M512 384zM0 384q0 139 68.5 257t186.5 186.5t257 68.5t257 -68.5t186.5 -186.5t68.5 -257t-68.5 -257t-186.5 -186.5t-257 -68.5t-257 68.5t-186.5 186.5t-68.5 257zM249 229v-55h376v56q0 28 -22 50.5t-53.5 34.5t-62 19t-54.5 7q-33 0 -73.5 -11.5t-75.5 -39t-35 -61.5
zM718 488.5q0 30.5 -22 52t-53 21.5t-53 -21.5t-22 -52t22 -52.5t53 -22t53 22t22 52.5zM531 488.5q0 38.5 -27.5 65.5t-66.5 27t-66.5 -27t-27.5 -65.5t27.5 -65.5t66.5 -27t66.5 27t27.5 65.5zM650 266h125v38q0 24 -25.5 41.5t-54 24.5t-52.5 7t-56.5 -9.5t-52.5 -25.5
q84 -27 116 -76z" />
    <glyph glyph-name="uniE628" unicode="&#xe628;" 
d="M291 482q26 0 49 10q-21 42 -21 89q0 72 45 127q-33 25 -73 25q-52 0 -88.5 -37t-36.5 -89t36.5 -88.5t88.5 -36.5zM416 389q-12 22 -38 33.5t-45 12.5l-20 1h-61q-6 0 -16.5 -1t-34.5 -12t-38 -32q-12 -17 -28.5 -70t-26.5 -99l-3 -12q-4 -13 3.5 -22.5t21.5 -9.5h138
q32 108 54 140q35 50 97 67q-2 3 -3 4zM937 210l-1 7q-10 42 -29 98.5t-32 73.5q-12 22 -38 33.5t-45 12.5l-20 1h-61q-6 0 -16.5 -1t-34.5 -12t-38 -32q-2 -3 -5 -8q70 -19 99 -69q24 -33 56 -136h140q14 0 21.5 9.5t3.5 22.5zM701 492q23 -10 49 -10q52 0 88.5 36.5
t36.5 88.5t-36.5 89t-88.5 37q-40 0 -74 -25q46 -55 46 -127q0 -46 -21 -89zM520.5 416q68.5 0 116.5 48.5t48 117t-48 116.5t-116.5 48t-116.5 -48t-48 -116.5t48 -117t116.5 -48.5zM766 59l-2 9q-12 55 -37 129.5t-42 96.5q-16 29 -50 44.5t-60 16.5l-26 1h-80
q-3 0 -8.5 -0.5t-20.5 -3t-28.5 -8t-30.5 -18t-29 -29.5q-15 -22 -37 -92t-36 -130l-3 -16q-5 -17 5 -29.5t28 -12.5h425q18 0 27.5 12.5t4.5 29.5z" />
    <glyph glyph-name="uniE629" unicode="&#xe629;" horiz-adv-x="1070" 
d="M870 156q-9 0 -15 6t-6 14.5t6 14.5t15 6q38 0 54 12q14 10 14 32v427q0 17 -12.5 29.5t-29.5 12.5h-671q-17 0 -29.5 -12.5t-12.5 -29.5v-427q0 -18 12.5 -30t29.5 -12l362 -2q8 0 14 -6t6 -14.5t-6 -14.5t-14 -6l-362 2q-34 0 -58.5 24t-24.5 59v427q0 34 24.5 58.5
t58.5 24.5h671q34 0 58.5 -24.5t24.5 -58.5v-427q0 -43 -31 -65q-27 -20 -78 -20zM322 254h-71q-8 0 -14 6t-6 14.5t6 14.5t14 6h71q8 0 14 -6t6 -14.5t-6 -14.5t-14 -6zM496 254h-88q-8 0 -14 6t-6 14.5t6 14.5t14 6h88q9 0 15 -6t6 -14.5t-6 -14.5t-15 -6zM958 476h-795
q-9 0 -15 6t-6 15v102q0 8 6 14t15 6h795q9 0 15 -6t6 -14v-102q0 -9 -6 -15t-15 -6zM183 517h755v61h-755v-61zM566 177zM897 177zM729 -8q-9 0 -14 7l-181 239q-7 9 -2 19.5t17 10.5h361q11 0 16.5 -10.5t-1.5 -19.5l-181 -239q-5 -7 -15 -7zM586 231l143 -190l144 190
h-287zM729 0v1q-15 0 -18 14l-4 17l-56 212q-3 9 2.5 16.5t14.5 7.5h9q7 0 12.5 -5.5t5.5 -13.5q0 -7 -4 -12l38 -145l43 162q2 7 9 11t14 2t11 -8.5t2 -14.5l-57 -212l-3 -17q-4 -14 -18 -14q0 -1 -1 0v-1zM910 234q-12 0 -17 11l-29 64h-264l-35 -65q-4 -7 -11 -9.5
t-14 1.5t-9 11t1 14l41 75q5 9 16 9h287q11 0 16 -10l35 -75q3 -7 0.5 -14t-9.5 -10q-4 -2 -8 -2zM669 232q-9 0 -17 9l-2 2q-2 2 -3 5l-32 72q-3 6 0 13.5t10 10.5t14 0t10 -10l20 -44l20 44q3 7 10 10t14 0t9.5 -10.5t-0.5 -13.5l-32 -72q-1 -3 -3 -5q0 -1 -2 -2
q-7 -9 -16 -9zM790 232q-10 0 -17 9l-2 2q-2 2 -3 5l-32 72q-3 6 0 13.5t10 10.5t14 0t10 -10l20 -44l19 44q4 7 11 10t14 0t9.5 -10.5t-0.5 -13.5l-32 -72q-1 -3 -3 -5q0 -1 -2 -2q-7 -9 -16 -9zM912 340z" />
    <glyph glyph-name="uniE62A" unicode="&#xe62a;" 
d="M527.5 784q-104.5 0 -193 -51t-139.5 -139.5t-51 -193t51 -192.5t139.5 -139.5t193 -51.5t193 51.5t139.5 139.5t51 192.5t-51 193t-139.5 139.5t-193 51zM527.5 35q-99.5 0 -183.5 49t-133 133t-49 183.5t49 184t133 133t183.5 48.5t183.5 -48.5t133 -133t49 -184
t-49 -183.5t-133 -133t-183.5 -49zM701 328l-61 25v16q21 17 30 49h2q3 1 3.5 2t2 3.5t2 8t0.5 13.5q0 6 -2 9t-3.5 3.5t-2.5 0.5v23q-6 46 -54 49h-1q-23 0 -35 -6.5t-12 -13.5v-6q-8 -5 -8 -23v-23q-1 0 -2.5 -0.5t-3.5 -3.5t-2 -9q0 -10 1.5 -16t2 -7.5t4.5 -2.5l3 -1
q4 -14 11 -26.5t12 -17.5l5 -5v-16q-16 -8 -29 -16q13 -8 13 -36v-50h148v41q0 12 -6 21t-12 12zM535 340l-58 25v20q17 14 26 48q5 3 6.5 4t4 9t3.5 23q0 6 -2 9.5t-3 3.5h-3v26q0 50 -53 54q-5 1 -10 1v0q-26 -1 -39.5 -8t-13.5 -14l-1 -7v-1q-9 -5 -9 -25v-26h-3
q-1 0 -3.5 -3.5t-2.5 -9.5q1 -15 3.5 -23t4 -9t6.5 -4q4 -15 10.5 -27t10.5 -17l5 -4v-20l-58 -25q-3 -1 -7.5 -3.5t-11.5 -12.5t-7 -23v-50h231l1 50q0 13 -6.5 22.5t-13.5 13.5z" />
    <glyph glyph-name="uniE62B" unicode="&#xe62b;" horiz-adv-x="1025" 
d="M511 895q-104 0 -198.5 -40.5t-163 -109t-109 -163.5t-40.5 -199t40.5 -198.5t109 -163t163 -109t198.5 -40.5t199 40.5t163.5 109t109 163t40.5 198.5t-40.5 199t-109 163.5t-163.5 109t-199 40.5zM511.5 -82q-96.5 0 -184.5 37t-151.5 100t-101 150.5t-37.5 183
t37.5 183t101 150.5t151.5 100t184.5 37t184.5 -37t151.5 -100t101 -150.5t37.5 -183t-37.5 -183t-101 -150.5t-151.5 -100t-184.5 -37zM725.5 474.5q-13.5 13.5 -12.5 32.5l-15 15q-4 5 -10.5 11.5t-28.5 21.5t-44.5 23.5t-54.5 7t-62 -18.5l5 -6l40 6l-33 -15l6 -8
q41 6 81 -17q35 -20 18 -42l-79 -79q-8 -7 -19 -10l-212 -194l66 -67l194 212q3 12 11 21q1 0 3 2l84 84q19 0 31 -12q13 -13 12 -31l25 -25l52 52l-24 24q-20 -1 -33.5 12.5z" />
    <glyph glyph-name="uniE62C" unicode="&#xe62c;" 
d="M463 582v281h-262q-20 0 -34.5 -14.5t-14.5 -34.5v-860q0 -21 14.5 -35.5t34.5 -14.5h622q20 0 34.5 14.5t14.5 35.5v529h-311q-41 0 -69.5 29t-28.5 70zM792 10h-560q-11 0 -19 8t-8 19t8 19t19 8h560q11 0 19 -8t8 -19t-8 -19t-19 -8zM792 117h-560q-11 0 -19 7.5
t-8 18.5t8 19t19 8h560q11 0 19 -8t8 -19t-8 -18.5t-19 -7.5zM819 250q0 -11 -8 -18.5t-19 -7.5h-560q-11 0 -19 7.5t-8 18.5t8 19t19 8h560q11 0 19 -8t8 -19zM539 330h-307q-11 0 -19 8t-8 19t8 18.5t19 7.5h307q11 0 18.5 -7.5t7.5 -18.5t-7.5 -19t-18.5 -8zM561 532h311
l-360 332v-282q0 -20 14.5 -35t34.5 -15z" />
    <glyph glyph-name="uniE62D" unicode="&#xe62d;" 
d="M505 621q93 -7 134 -67q23 -35 16 -84q-1 -6 -1 -7q-2 -7 5 -9q14 -3 18 -8t4 -19q0 -19 -10 -48q-7 -20 -26 -21q-7 -1 -9 -8q-19 -76 -97 -115q-30 -14 -65 6q-57 32 -80 89q-4 10 -5 19q-2 7 -9 9q-17 3 -24 20q-12 27 -11 53q0 19 19 23q6 1 5 8q-2 44 3 68
q7 31 24.5 47t48.5 20q9 1 10 1q14 0 18 11q3 10 20 12h12zM577 54q11 28 12 30q26 74 34 97q4 10 14 6q11 -4 41.5 -14.5t46.5 -17.5q45 -17 59 -49q8 -18 8 -37v-27q0 -15 -10 -25.5t-26 -10.5h-482q-28 0 -39 22q-2 5 -2 7q0 47 3 60q13 41 62 60q17 6 48 17t44 15
q8 4 12 -6q8 -23 43 -119q0 -1 2 -8q3 0 6 5q2 3 14.5 25t19.5 33q4 7 -3 12q-19 15 -21 40q-1 17 15 25q34 17 67 2q20 -10 16 -34q-3 -19 -21 -34q-6 -5 -2 -10q7 -12 21 -35.5t16 -27.5l2 -1v0zM717 762q73 -6 114 -54q26 -31 23 -75q-1 -16 -3 -22q-1 -4 5 -5
q12 -2 16 -7t4 -18q0 -20 -10 -50q-5 -14 -22 -15q-7 0 -9 -8q-18 -72 -91 -106l-1 -1q-14 -5 -16.5 -3t-0.5 16q5 41 -18 66q-5 5 -6 12q-1 100 -97 150q-12 6 -13.5 9t0.5 16q6 43 34 60q19 11 48 13q8 0 10 7q3 11 18 14q1 0 15 1zM297 761q85 -8 122 -63q13 -20 16 -48
q1 -8 -8 -10q-39 -8 -63 -31q-33 -31 -40 -87q0 -6 -1 -31q-1 -6 -4 -9q-26 -27 -19 -68q1 -14 -1.5 -16t-15.5 3q-72 31 -93 104q-3 11 -12 13q-11 1 -17 13q-13 26 -12 56q1 15 16 18q7 2 7 9q-2 25 -1 43q3 40 23 60t60 23q9 0 11 8q3 10 19 13h13zM190 202h-94
q-12 0 -20.5 7t-9.5 19q-3 24 0 43q7 48 58 69q8 3 71 27q8 3 10 2t5 -9l17 -51q12 -36 18 -56q3 -7 4 -7t2.5 1t2.5 3t1 3q3 5 12.5 19.5t15.5 22.5q4 6 -2 11q-19 15 -20 36q-1 14 11 21q14 8 33 7q5 0 7 -5q9 -21 25 -36q5 -3 1 -9q-6 -10 -13 -15q-6 -4 -2 -10
q8 -11 22 -32t17 -25q4 -7 3.5 -9t-7.5 -5q-7 -2 -19 -6t-22 -7.5t-19 -6.5q-4 -2 -13 -2h-95zM835 202q-80 0 -92 -1q-9 0 -23 5q-1 0 -52 18q-7 3 -7.5 4.5t3.5 8.5q32 49 37 58q5 7 -1 11q-2 1 -6 6q-7 7 -7 9.5t7 9.5q14 14 19 31q3 9 13 8q30 -1 37 -17q8 -20 -13 -42
q-8 -9 -8.5 -11.5t5.5 -12.5q9 -13 24 -37q4 -4 5.5 -4t2.5 6q30 87 36 108q4 11 15 7q5 -2 34 -12.5t44 -18.5q52 -25 52 -80v-23q-1 -14 -9.5 -22.5t-22.5 -8.5h-93v0zM835 202z" />
  </font>
</defs>
</svg>
